<svg width="12" height="14" viewBox="0 0 12 14" fill="none" xmlns="http://www.w3.org/2000/svg">
<path d="M8.30394 11.098C7.67133 12.1334 6.79122 12.828 5.66361 13.1818C4.53601 13.5357 3.48528 13.4469 2.51144 12.9157C1.5376 12.3844 0.930925 11.5689 0.691409 10.4693C0.451894 9.36959 0.648442 8.30208 1.28105 7.26672L4.65702 1.74145C5.11323 0.994796 5.74681 0.494234 6.55776 0.239767C7.36871 -0.0146995 8.12532 0.0496342 8.82761 0.432767C9.5299 0.8159 9.96717 1.40289 10.1394 2.19375C10.3117 2.9846 10.1697 3.75335 9.71349 4.50001L6.52002 9.72661C6.24021 10.1846 5.85316 10.4911 5.35886 10.6462C4.86457 10.8013 4.40205 10.7614 3.97132 10.5264C3.54058 10.2914 3.27272 9.93286 3.16772 9.45081C3.06273 8.96877 3.15014 8.49877 3.42995 8.04082L6.80591 2.51556L7.92957 3.12858L4.55361 8.65384C4.47453 8.78326 4.44894 8.91199 4.47683 9.04003C4.50472 9.16808 4.57952 9.2653 4.70125 9.33171C4.82298 9.39812 4.9495 9.41073 5.08079 9.36953C5.21209 9.32833 5.31728 9.24302 5.39635 9.1136L8.58983 3.887C8.83594 3.46376 8.91377 3.035 8.8233 2.6007C8.73283 2.1664 8.49096 1.84197 8.09768 1.62742C7.70439 1.41286 7.28378 1.37587 6.83582 1.51643C6.38787 1.65699 6.03615 1.93634 5.78068 2.35447L2.40472 7.87973C1.96347 8.58145 1.8264 9.30643 1.99349 10.0546C2.16058 10.8029 2.57655 11.3583 3.24138 11.721C3.89685 12.0786 4.60455 12.1362 5.36448 11.8937C6.1244 11.6512 6.72967 11.1817 7.18028 10.485L10.7387 4.66111L11.8624 5.27412L8.30394 11.098Z" fill="#111111"/>
</svg>
