<svg width="20" height="19" viewBox="0 0 20 19" fill="none" xmlns="http://www.w3.org/2000/svg">
<path d="M2 18.125C1.45 18.125 0.979167 17.9373 0.5875 17.562C0.195833 17.1866 0 16.7354 0 16.2083V2.79167C0 2.26458 0.195833 1.81337 0.5875 1.43802C0.979167 1.06267 1.45 0.875 2 0.875H18C18.55 0.875 19.0208 1.06267 19.4125 1.43802C19.8042 1.81337 20 2.26458 20 2.79167V16.2083C20 16.7354 19.8042 17.1866 19.4125 17.562C19.0208 17.9373 18.55 18.125 18 18.125H2ZM4 14.2917H16V12.375H4V14.2917ZM4 10.4583H8V4.70833H4V10.4583ZM10 10.4583H16V8.54167H10V10.4583ZM10 6.625H16V4.70833H10V6.625Z" fill="#111111"/>
</svg>
