<svg width="17" height="20" viewBox="0 0 17 20" fill="none" xmlns="http://www.w3.org/2000/svg">
<path d="M8 20C7.45 20 6.97917 19.8042 6.5875 19.4125C6.19583 19.0208 6 18.55 6 18H10C10 18.55 9.80417 19.0208 9.4125 19.4125C9.02083 19.8042 8.55 20 8 20ZM0 17V15H2V8C2 6.61667 2.41667 5.3875 3.25 4.3125C4.08333 3.2375 5.16667 2.53333 6.5 2.2V1.5C6.5 1.08333 6.64583 0.729167 6.9375 0.4375C7.22917 0.145833 7.58333 0 8 0C8.41667 0 8.77083 0.145833 9.0625 0.4375C9.35417 0.729167 9.5 1.08333 9.5 1.5V1.825C9.31667 2.19167 9.18333 2.56667 9.1 2.95C9.01667 3.33333 8.98333 3.725 9 4.125C8.83333 4.09167 8.67083 4.0625 8.5125 4.0375C8.35417 4.0125 8.18333 4 8 4C6.9 4 5.95833 4.39167 5.175 5.175C4.39167 5.95833 4 6.9 4 8V15H12V8.575C12.3 8.70833 12.6208 8.8125 12.9625 8.8875C13.3042 8.9625 13.65 9 14 9V15H16V17H0Z" fill="#999999"/>
<path d="M11.875 6.125C12.4583 6.70833 13.1667 7 14 7C14.8333 7 15.5417 6.70833 16.125 6.125C16.7083 5.54167 17 4.83333 17 4C17 3.16667 16.7083 2.45833 16.125 1.875C15.5417 1.29167 14.8333 1 14 1C13.1667 1 12.4583 1.29167 11.875 1.875C11.2917 2.45833 11 3.16667 11 4C11 4.83333 11.2917 5.54167 11.875 6.125Z" fill="#FF4C14"/>
</svg>
