<svg width="20" height="17" viewBox="0 0 20 17" fill="none" xmlns="http://www.w3.org/2000/svg">
<path d="M2 17C1.45 17 0.979167 16.815 0.5875 16.4451C0.195833 16.0752 0 15.6306 0 15.1111V1.88889C0 1.36944 0.195833 0.924769 0.5875 0.554861C0.979167 0.184954 1.45 0 2 0H18C18.55 0 19.0208 0.184954 19.4125 0.554861C19.8042 0.924769 20 1.36944 20 1.88889V15.1111C20 15.6306 19.8042 16.0752 19.4125 16.4451C19.0208 16.815 18.55 17 18 17H2ZM2 15.1111H18V1.88889H2V15.1111ZM4 13.2222H16V11.3333H4V13.2222ZM4 9.44444H8V3.77778H4V9.44444ZM10 9.44444H16V7.55556H10V9.44444ZM10 5.66667H16V3.77778H10V5.66667Z" fill="#999999"/>
</svg>
