<svg width="16" height="14" viewBox="0 0 16 14" fill="none" xmlns="http://www.w3.org/2000/svg">
<path d="M8 11.2778C9 11.2778 9.85 10.9375 10.55 10.2569C11.25 9.57639 11.6 8.75 11.6 7.77778C11.6 6.80556 11.25 5.97917 10.55 5.29861C9.85 4.61806 9 4.27778 8 4.27778C7 4.27778 6.15 4.61806 5.45 5.29861C4.75 5.97917 4.4 6.80556 4.4 7.77778C4.4 8.75 4.75 9.57639 5.45 10.2569C6.15 10.9375 7 11.2778 8 11.2778ZM8 9.72222C7.44 9.72222 6.96667 9.53426 6.58 9.15833C6.19333 8.78241 6 8.32222 6 7.77778C6 7.23333 6.19333 6.77315 6.58 6.39722C6.96667 6.0213 7.44 5.83333 8 5.83333C8.56 5.83333 9.03333 6.0213 9.42 6.39722C9.80667 6.77315 10 7.23333 10 7.77778C10 8.32222 9.80667 8.78241 9.42 9.15833C9.03333 9.53426 8.56 9.72222 8 9.72222ZM1.6 14C1.16 14 0.783333 13.8477 0.47 13.5431C0.156667 13.2384 0 12.8722 0 12.4444V3.11111C0 2.68333 0.156667 2.31713 0.47 2.0125C0.783333 1.70787 1.16 1.55556 1.6 1.55556H4.12L5.6 0H10.4L11.88 1.55556H14.4C14.84 1.55556 15.2167 1.70787 15.53 2.0125C15.8433 2.31713 16 2.68333 16 3.11111V12.4444C16 12.8722 15.8433 13.2384 15.53 13.5431C15.2167 13.8477 14.84 14 14.4 14H1.6Z" fill="white"/>
</svg>
