<svg width="12" height="14" viewBox="0 0 12 14" fill="none" xmlns="http://www.w3.org/2000/svg">
<path d="M7.74062 10.9956C7.15319 11.957 6.31153 12.5886 5.21564 12.8906C4.11976 13.1925 3.08489 13.0778 2.11105 12.5465C1.13721 12.0152 0.514675 11.2257 0.243442 10.178C-0.0277908 9.13023 0.130305 8.12565 0.717731 7.16424L3.85255 2.03364C4.27618 1.34031 4.88206 0.885083 5.6702 0.66795C6.45834 0.450816 7.20355 0.533816 7.90584 0.916949C8.60813 1.30008 9.0568 1.86841 9.25187 2.62193C9.44693 3.37545 9.33265 4.09887 8.90903 4.7922L5.94366 9.64547C5.68384 10.0707 5.31373 10.3495 4.83334 10.4818C4.35295 10.6142 3.89739 10.5629 3.46665 10.3279C3.03591 10.0929 2.7611 9.74576 2.6422 9.28647C2.5233 8.82718 2.59377 8.38492 2.85359 7.95968L5.98841 2.82908L7.11207 3.44209L3.97725 8.57269C3.90382 8.69287 3.8829 8.81396 3.91448 8.93596C3.94606 9.05795 4.02272 9.15216 4.14445 9.21857C4.26618 9.28498 4.39085 9.3006 4.51845 9.26545C4.64605 9.23029 4.74657 9.15263 4.82 9.03245L7.78537 4.17918C8.01323 3.78581 8.07563 3.38229 7.97256 2.96861C7.8695 2.55494 7.62132 2.24082 7.22804 2.02627C6.83476 1.81171 6.42044 1.76441 5.98509 1.88435C5.54973 2.00429 5.21344 2.25839 4.97621 2.64665L1.84139 7.77725C1.431 8.42849 1.3201 9.11062 1.5087 9.82363C1.6973 10.5366 2.12402 11.0745 2.78885 11.4372C3.44432 11.7948 4.14127 11.87 4.87969 11.6627C5.61811 11.4554 6.1972 11.0287 6.61695 10.3826L9.92123 4.97463L11.0449 5.58764L7.74062 10.9956Z" fill="#666666"/>
</svg>
